<?xml version="1.0" encoding="UTF-8" standalone="no"?>
<svg
   xmlns:sketch="http://www.bohemiancoding.com/sketch/ns"
   xmlns:dc="http://purl.org/dc/elements/1.1/"
   xmlns:cc="http://creativecommons.org/ns#"
   xmlns:rdf="http://www.w3.org/1999/02/22-rdf-syntax-ns#"
   xmlns:svg="http://www.w3.org/2000/svg"
   xmlns="http://www.w3.org/2000/svg"
   xmlns:sodipodi="http://sodipodi.sourceforge.net/DTD/sodipodi-0.dtd"
   xmlns:inkscape="http://www.inkscape.org/namespaces/inkscape"
   width="222px"
   height="183px"
   viewBox="0 0 222 183"
   version="1.1"
   id="svg2"
   inkscape:version="0.48.4 r9939"
   sodipodi:docname="banner.svg">
  <metadata
     id="metadata38">
    <rdf:RDF>
      <cc:Work
         rdf:about="">
        <dc:format>image/svg+xml</dc:format>
        <dc:type
           rdf:resource="http://purl.org/dc/dcmitype/StillImage" />
      </cc:Work>
    </rdf:RDF>
  </metadata>
  <defs
     id="defs36" />
  <sodipodi:namedview
     pagecolor="#ffffff"
     bordercolor="#666666"
     borderopacity="1"
     objecttolerance="10"
     gridtolerance="10"
     guidetolerance="10"
     inkscape:pageopacity="0"
     inkscape:pageshadow="2"
     inkscape:window-width="1307"
     inkscape:window-height="744"
     id="namedview34"
     showgrid="false"
     inkscape:zoom="1.2896175"
     inkscape:cx="97.430085"
     inkscape:cy="91.5"
     inkscape:window-x="59"
     inkscape:window-y="24"
     inkscape:window-maximized="1"
     inkscape:current-layer="Page-1" />
  <g
     id="Page-1"
     stroke="none"
     stroke-width="1"
     fill="none"
     fill-rule="evenodd"
     sketch:type="MSPage">
    <path
       d="m 211.3918,48.714415 8.44133,98.982335"
       id="Fill-1"
       sketch:type="MSShapeGroup"
       inkscape:connector-curvature="0"
       style="fill:#ffffff" />
    <path
       d="m 211.3918,48.714415 8.44133,98.982335"
       id="Stroke-2"
       sketch:type="MSShapeGroup"
       inkscape:connector-curvature="0"
       style="stroke:#b4b5b4;stroke-width:2;stroke-linecap:round" />
    <path
       d="M 11.372929,165.53917 2.6644582,66.878793"
       id="Fill-3"
       sketch:type="MSShapeGroup"
       inkscape:connector-curvature="0"
       style="fill:#ffffff" />
    <path
       d="M 11.372929,165.53917 2.6644582,66.878793"
       id="Stroke-4"
       sketch:type="MSShapeGroup"
       inkscape:connector-curvature="0"
       style="stroke:#b4b5b4;stroke-width:2;stroke-linecap:round" />
    <path
       d="m 145.78197,38.569887 58.65471,-5.096378 c 3.01786,-0.262188 5.67773,1.977283 5.93945,5.000604 l 0.60818,7.023396"
       id="Stroke-5"
       sketch:type="MSShapeGroup"
       inkscape:connector-curvature="0"
       style="stroke:#b4b5b4;stroke-width:2;stroke-linecap:round" />
    <path
       d="M 73.116012,44.868528 137.74406,39.26883"
       id="Fill-6"
       sketch:type="MSShapeGroup"
       inkscape:connector-curvature="0"
       style="fill:#ffffff" />
    <path
       d="M 73.116012,44.868528 137.74406,39.26883"
       id="Stroke-7"
       sketch:type="MSShapeGroup"
       inkscape:connector-curvature="0"
       style="stroke:#b4b5b4;stroke-width:2;stroke-linecap:round" />
    <path
       d="M 2.4583406,63.615698 1.8508359,56.592981 C 1.5891207,53.56966 3.824548,50.904981 6.8424087,50.642792 L 64.867916,45.600755 m 155.287954,105.835925 0.60818,7.02272 c 0.26171,3.024 -1.97371,5.68867 -4.99157,5.95086 L 18.178201,181.57887 c -3.01786,0.26219 -5.677727,-1.97729 -5.939443,-5.00061 L 11.630576,169.55555 220.15587,151.43668 z M 65.166245,52.020981 c 0.140349,1.624076 -1.059744,3.055245 -2.680886,3.195849 -1.621142,0.141283 -3.049727,-1.06166 -3.190077,-2.685736 -0.141028,-1.624075 1.059743,-3.055245 2.680885,-3.195849 1.621143,-0.140603 3.049728,1.061661 3.190078,2.685736 l 0,0 z m 85.252025,-7.40717 c 0.14035,1.624076 -1.05975,3.054566 -2.68089,3.195849 -1.62114,0.140604 -3.04973,-1.06166 -3.19008,-2.685736 -0.14102,-1.624075 1.05975,-3.055245 2.68089,-3.195849 1.62114,-0.141283 3.04973,1.061661 3.19008,2.685736 l 0,0 z"
       id="Stroke-8"
       sketch:type="MSShapeGroup"
       inkscape:connector-curvature="0"
       style="stroke:#b4b5b4;stroke-width:2;stroke-linecap:round" />
    <path
       d="M 207.04434,45.839849 6.3989845,63.273358"
       id="Fill-9"
       sketch:type="MSShapeGroup"
       inkscape:connector-curvature="0"
       style="fill:#ffffff" />
    <path
       d="M 207.04434,45.839849 6.3989845,63.273358"
       id="Stroke-10"
       sketch:type="MSShapeGroup"
       inkscape:connector-curvature="0"
       style="stroke:#b4b5b4;stroke-width:2;stroke-linecap:round" />
    <path
       d="M 215.77451,152.16891 15.129152,169.60309"
       id="Fill-11"
       sketch:type="MSShapeGroup"
       inkscape:connector-curvature="0"
       style="fill:#ffffff" />
    <path
       d="M 215.77451,152.16891 15.129152,169.60309"
       id="Stroke-12"
       sketch:type="MSShapeGroup"
       inkscape:connector-curvature="0"
       style="stroke:#b4b5b4;stroke-width:2;stroke-linecap:round" />
    <path
       d="m 113.06622,13.019396 c 0.2685,0.190868 0.5431,0.390566 0.82312,0.598415"
       id="Stroke-21"
       sketch:type="MSShapeGroup"
       inkscape:connector-curvature="0"
       style="stroke:#b4b5b4;stroke-width:2;stroke-linecap:round" />
    <path
       d="m 116.42038,15.570642 c 8.63728,6.90249 20.65584,18.594339 25.21483,23.092301"
       id="Stroke-22"
       sketch:type="MSShapeGroup"
       inkscape:connector-curvature="0"
       style="stroke:#b4b5b4;stroke-width:2;stroke-linecap:round;stroke-dasharray:2.826, 4.71" />
    <path
       d="m 142.76886,39.785057 c 0.46512,0.461886 0.7187,0.716603 0.7187,0.716603 m -77.198517,7.53351 c 0,0 0.244765,-0.260151 0.697003,-0.73834"
       id="Stroke-23"
       sketch:type="MSShapeGroup"
       inkscape:connector-curvature="0"
       style="stroke:#b4b5b4;stroke-width:2;stroke-linecap:round" />
    <path
       d="M 69.300124,44.863094 C 75.421275,38.44966 89.511858,23.86966 98.690873,15.816528"
       id="Stroke-24"
       sketch:type="MSShapeGroup"
       inkscape:connector-curvature="0"
       style="stroke:#b4b5b4;stroke-width:2;stroke-linecap:round;stroke-dasharray:2.971, 4.951" />
    <path
       d="m 99.960802,14.718189 c 0.264428,-0.22551 0.523428,-0.444227 0.777688,-0.655472 l -0.777688,0.655472 z m 10.167568,-2.526113 c 0.0814,1.730037 -1.25366,3.198565 -2.98057,3.279396 -1.72692,0.08151 -3.19279,-1.255246 -3.27415,-2.985963 -0.0807,-1.730037 1.25365,-3.1985656 2.98125,-3.2793958 1.72691,-0.081509 3.19278,1.2552458 3.27347,2.9859628 l 0,0 z m 4.97462,6.968377 c -2.02117,2.406566 -5.08582,3.891396 -8.46709,3.773887 -3.0477,-0.105283 -5.56993,-1.664151 -7.609408,-3.625812 m -2.558164,-5.925056 c 0.03729,-0.463246 -0.06034,-0.933283 -0.04407,-1.410793 0.202049,-5.8516979 5.100732,-10.4318488 10.941862,-10.230113 5.84181,0.2024151 10.41369,5.1099623 10.21164,10.96166"
       id="Stroke-25"
       sketch:type="MSShapeGroup"
       inkscape:connector-curvature="0"
       style="stroke:#b4b5b4;stroke-width:2;stroke-linecap:round" />
    <path
       d="m 125.24044,143.58415 c 0.45544,0.33739 2.11227,1.35529 4.68181,1.03979 2.87544,-0.35306 4.45256,-2.51326 4.19465,-4.61376 -0.32301,-2.63072 -2.75229,-3.53309 -4.82808,-4.08554 -1.73447,-0.47015 -2.56915,-1.03009 -2.68684,-1.98857 -0.0801,-0.65258 0.45692,-1.50514 1.61933,-1.64787 1.12162,-0.13771 2.7967,0.69165 2.97237,0.77358 0.26475,0.1331 0.55061,-0.0676 0.68371,-0.33236 l 0.63222,-1.25756 c 0.11771,-0.22146 0.014,-0.56064 -0.20499,-0.65796 -0.44543,-0.25582 -2.1663,-1.12096 -4.24641,-0.86555 -3.24252,0.39813 -4.33056,2.6639 -4.1077,4.47889 0.29546,2.4064 2.36266,3.39461 4.37477,3.93418 1.79817,0.48304 2.76271,1.08913 2.89042,2.12919 0.10767,0.8769 -0.60253,1.66792 -1.66298,1.79813 -1.32556,0.16276 -3.12514,-0.83762 -3.23462,-0.88628 -0.20106,-0.12021 -0.54775,-0.0776 -0.67584,0.22789 l -0.57891,1.35452 c -0.14347,0.34883 -0.029,0.43827 0.17709,0.59928 z m 10.47186,-7.10266 c 0.50079,4.07864 4.14144,6.92302 8.22008,6.42222 4.07864,-0.50079 6.94342,-4.14394 6.44262,-8.22258 -0.50079,-4.07864 -4.16684,-6.96131 -8.24548,-6.46052 -4.07864,0.50079 -6.91802,4.18224 -6.41722,8.26088 z m 2.65111,-0.32552 c -0.3155,-2.56954 1.52208,-4.96874 4.09163,-5.28424 2.56954,-0.3155 4.95335,1.56538 5.26885,4.13492 0.3155,2.56954 -1.54748,4.93045 -4.11703,5.24595 -2.56954,0.3155 -4.92795,-1.52708 -5.24345,-4.09663 z m 14.0713,-1.72774 c 0.5008,4.07864 4.14145,6.92302 8.22009,6.42223 4.07864,-0.5008 6.94342,-4.14394 6.44263,-8.22258 -0.5008,-4.07864 -4.16685,-6.96132 -8.24549,-6.46053 -4.07864,0.5008 -6.91802,4.18224 -6.41723,8.26088 z m 2.65112,-0.32551 c -0.3155,-2.56955 1.52208,-4.96874 4.09163,-5.28424 2.56954,-0.3155 4.95335,1.56537 5.26885,4.13491 0.3155,2.56955 -1.54749,4.93046 -4.11703,5.24596 -2.56954,0.3155 -4.92795,-1.52709 -5.24345,-4.09663 z m 15.91728,4.87681 c 0.025,0.20393 0.23112,0.36493 0.43505,0.33989 l 1.85578,-0.22786 c 0.22433,-0.0275 0.36494,-0.23111 0.3399,-0.43504 l -1.07671,-8.76908 0.0204,-0.002 9.67368,8.31382 0.48944,-0.0601 c 0.20392,-0.025 0.36743,-0.21072 0.3424,-0.41465 l -1.68518,-13.72462 c -0.025,-0.20393 -0.23111,-0.36493 -0.43504,-0.33989 l -1.87618,0.23036 c -0.22433,0.0276 -0.36494,0.23112 -0.3399,0.43505 l 1.03414,8.42239 -0.0203,0.002 -9.59033,-7.97215 -0.50983,0.0626 c -0.20393,0.025 -0.36744,0.21073 -0.3424,0.41466 l 1.68517,13.72462 z m 16.07686,-7.21126 0.65259,-0.0801 c 0.18353,-0.0225 0.34704,-0.20821 0.3474,-0.37386 l 0.0917,-5.82814 -0.28044,-2.28404 c -0.025,-0.20393 -0.23111,-0.36493 -0.43505,-0.33989 l -2.24325,0.27544 c -0.20393,0.025 -0.36493,0.23111 -0.33989,0.43504 l 0.28545,2.32482 1.49394,5.59205 c 0.0405,0.16063 0.24399,0.30125 0.42754,0.27871 z m -0.84516,4.2439 c 0.11268,0.9177 0.95988,1.5796 1.85718,1.46942 0.93808,-0.11518 1.59998,-0.96237 1.4873,-1.88007 -0.11268,-0.91768 -0.96237,-1.59998 -1.90046,-1.4848 -0.8973,0.11018 -1.5567,0.97777 -1.44402,1.89545 z"
       id="SOON!"
       sketch:type="MSShapeGroup"
       inkscape:connector-curvature="0"
       style="fill:#b4b5b4" />
    <g
       transform="matrix(0.96664187,-0.25613181,0.25613181,0.96664187,0,0)"
       style="font-size:84.37628174px;font-style:normal;font-weight:normal;line-height:125%;letter-spacing:0px;word-spacing:0px;fill:#08b69d;fill-opacity:1;font-family:Sans"
       id="text3070">
      <path
         d="m -11.329727,125.75809 c -0.759386,5.73758 0.253134,11.64393 4.8938245,15.52524 2.7000383,2.19378 6.15947175,3.45942 9.3657673,4.47194 7.4251052,2.27816 15.0189842,2.44691 21.0940702,-2.02503 2.868791,-2.02503 1.265642,-4.89383 -1.434397,-7.08761 -2.278157,-1.68752 -5.737589,2.10941 -8.268875,2.95317 -6.750096,2.27816 -14.4283465,-1.35003 -16.5377514,-8.26888 -2.0250288,-6.49696 -0.1687458,-14.17521 6.5813499,-16.53775 2.6156622,-0.92813 5.9907195,1.4344 9.1970145,0.42189 2.025029,-0.67501 4.134439,-0.33751 5.23133,-2.44692 1.350019,-2.36253 -1.18127,-4.38756 -2.784418,-4.89382 -4.134433,-1.18127 -7.762622,-1.85628 -12.2345604,-0.84376 -9.3657579,2.19378 -13.8377116,10.12516 -15.1033546,18.73153"
         style="font-variant:normal;font-stretch:normal;fill:#08b69d;font-family:GoodDog;-inkscape-font-specification:GoodDog"
         id="path3843" />
      <path
         d="m 34.505052,136.3895 c 2.278157,1.26564 6.665728,1.18127 8.522004,-0.75938 4.471939,-4.72507 7.593864,-10.37829 5.821964,-17.04401 -0.759386,-2.86879 -1.940657,-5.73759 -4.134438,-8.26888 -3.206296,-3.5438 -9.112641,-4.89382 -11.137669,-0.3375 -1.012515,2.36253 -4.050063,4.80945 -5.400082,9.53452 -1.856277,6.41259 0.590639,13.5002 6.328221,16.87525 m 2.700041,-8.35325 c -8.859501,-2.02503 0.25313,-13.66896 2.109407,-11.7283 4.556314,4.97819 3.965679,13.07832 -2.109407,11.7283"
         style="font-variant:normal;font-stretch:normal;fill:#08b69d;font-family:GoodDog;-inkscape-font-specification:GoodDog"
         id="path3845" />
      <path
         d="m 50.895146,122.46742 c 0.843762,6.66571 -1.096889,14.17522 1.265645,20.08155 1.012514,2.44691 5.821965,2.53129 7.593865,0 3.712553,-5.48445 5.400085,-11.72831 8.775133,-17.55027 2.109405,5.82196 -2.109404,12.4877 0.421882,17.55027 2.109405,3.37505 7.50949,0.84376 8.775133,-1.68753 2.109405,-5.82195 4.640699,-11.7283 7.93137,-17.12838 0.421881,-0.84376 2.109407,-2.10941 2.109407,-0.84376 1.265643,8.35324 1.265642,17.12839 -1.687525,25.14413 -0.421881,1.18127 0,2.86879 0.421881,2.86879 2.953167,1.68753 7.171985,1.26564 8.015747,-1.60315 3.712553,-9.70326 3.459426,-19.74406 2.109407,-29.78482 -0.337505,-2.10941 0.421879,-5.06258 -1.687526,-6.32823 -7.171976,-2.86879 -11.728307,4.6407 -15.947117,9.2814 -1.265643,-2.95317 -0.843764,-6.32823 -1.687526,-9.70328 -0.42188,-0.3375 -1.265644,-1.18127 -1.687525,-1.60315 -8.775125,-3.37504 -9.618901,7.93138 -14.681473,12.57207 -2.44691,-3.37505 2.61566,-9.87203 -2.446912,-11.30642 -6.66572,-1.94065 -8.268875,4.55632 -7.593866,10.04078"
         style="font-variant:normal;font-stretch:normal;fill:#08b69d;font-family:GoodDog;-inkscape-font-specification:GoodDog"
         id="path3847" />
      <path
         d="m 103.923,126.0956 c 0,4.72506 -1.09689,9.87203 0.3375,14.68147 0.84376,2.61566 4.05007,2.27816 6.66573,1.51877 0.3375,0 0.75939,-0.75939 0.75939,-1.09689 1.09689,-4.05006 -1.4344,-7.76262 0,-11.81268 1.09689,-3.29067 -0.42188,-7.00323 2.19378,-10.71579 1.43439,-1.43439 -0.33751,-3.37505 -1.85628,-4.05006 -2.53129,-1.09689 -5.48446,-0.3375 -6.58135,1.85628 -1.51877,2.95317 -1.51877,6.24385 -1.51877,9.6189 m 2.1094,-19.06904 c 1.94066,2.19378 4.55633,2.53128 6.49698,1.51877 1.51877,-0.84376 3.79693,-4.6407 2.27816,-6.91886 -1.51877,-2.193777 -4.97821,-2.278154 -7.59387,-0.75938 -1.18126,0.75938 -2.53128,4.47194 -1.18127,6.15947"
         style="font-variant:normal;font-stretch:normal;fill:#08b69d;font-family:GoodDog;-inkscape-font-specification:GoodDog"
         id="path3849" />
      <path
         d="m 119.74751,129.13314 c 0,3.5438 -0.84376,7.50949 0.33751,10.71579 1.01251,2.53129 4.64069,2.19378 5.90634,0 3.37504,-5.65321 3.96569,-12.15019 8.1845,-16.79088 1.43439,6.83447 0.67501,13.58459 1.7719,20.67219 0.3375,2.19378 3.5438,1.35002 5.73758,0.75938 1.4344,-0.42188 1.4344,-2.86879 1.0969,-4.30319 -0.42188,-8.52199 -1e-5,-17.8034 -4.6407,-25.31288 -6.07509,-1.7719 -8.60638,3.54381 -11.3908,8.1845 0,0.42188 -0.42188,-0.67501 -0.75938,-1.01252 0,-2.19378 1.35002,-4.30319 0.75938,-6.41259 -0.84376,-2.86879 -5.65321,-2.95317 -6.66572,-0.42188 -1.4344,3.8813 -0.33751,9.28139 -0.33751,13.92208"
         style="font-variant:normal;font-stretch:normal;fill:#08b69d;font-family:GoodDog;-inkscape-font-specification:GoodDog"
         id="path3851" />
      <path
         d="m 152.09527,111.58288 c -4.21881,3.5438 -4.80945,8.69076 -2.8688,13.5002 1.26564,2.27816 2.53129,4.21882 4.80945,5.14695 3.12192,1.26565 6.4126,0.33751 9.6189,-1.60315 1.60314,-1.01251 0.59063,1.60315 0.59063,2.19379 1.35002,7.4251 2.61566,14.51273 1.35002,21.85345 -0.3375,0.67501 -0.67501,1.94066 -1.60315,2.27816 -4.55631,0.59064 -6.7501,-4.21881 -9.36577,-6.7501 -1.60314,-1.94065 -6.15946,0 -5.14695,3.2063 2.53129,7.42511 12.31894,10.80016 18.98466,7.08761 4.30319,-2.44691 4.21882,-7.42512 3.79694,-11.89706 -0.92814,-12.23455 -3.79693,-25.05977 1.68752,-36.6193 0.25313,-1.26565 -1.01251,-2.19379 -1.68752,-2.53129 -6.66572,-3.5438 -14.76586,-0.42188 -20.16593,4.13444 m 5.40008,2.27815 c 1.94065,-1.60314 5.56883,-3.5438 6.7501,-1.60314 1.01251,1.51877 0.67501,4.80944 -0.25313,6.41259 -1.68752,2.86879 -2.61567,7.34074 -5.82196,7.08761 -1.94065,0 -2.8688,-3.54381 -3.2063,-5.82196 -0.33751,-2.53129 0.67501,-4.47195 2.53129,-6.0751"
         style="font-variant:normal;font-stretch:normal;fill:#08b69d;font-family:GoodDog;-inkscape-font-specification:GoodDog"
         id="path3853" />
    </g>
  </g>
</svg>
